<svg version="1.2" xmlns="http://www.w3.org/2000/svg" viewBox="0 0 200 143" width="200" height="143">
	<title>New Project</title>
	<style>
		.s0 { fill: #5bc8af } 
		.s1 { fill: #274690 } 
		.s2 { fill: #f6a765 } 
	</style>
	<path id="R" class="s0" aria-label="R"  d="m166.5 124.7l32.7-14.7-22.5-32.1 12.3-6.2-2.8-61.2-27.5-4.5-54.8 3.2 1.3 112.5 35.6-0.5-1.7-35.3 6.1-1.2zm-30.7-89.9l19.2-0.3-0.2 23.9-18.7 1.4z"/>
	<path id="M" class="s1" aria-label="M"  d="m16.2 22.3l-11 109.8 34.2 2.9 5-58.1 8.5 22.2 19.8 0.1 10.7-19.7-2.4 59.4 34.2 0.3 4.8-111.1-29.6-3.5-25.7 41.5-19.1-45.1z"/>
	<path id="Layer 5" class="s2" d="m112.4 26.6l-5.1 112.4-6-0.2 5.1-112.5z"/>
	<path id="Shape 4" class="s1" d="m130.6 7.3v114.4h-3.6v-114.4z"/>
</svg>